<?xml version="1.0" standalone="no"?>
<!DOCTYPE svg PUBLIC "-//W3C//DTD SVG 20010904//EN"
 "http://www.w3.org/TR/2001/REC-SVG-20010904/DTD/svg10.dtd">
<svg version="1.0" xmlns="http://www.w3.org/2000/svg"
 width="207.000000pt" height="207.000000pt" viewBox="0 0 207.000000 207.000000"
 preserveAspectRatio="xMidYMid meet">
<metadata>
Created by potrace 1.11, written by Peter Selinger 2001-2013
</metadata>
<g transform="translate(0.000000,207.000000) scale(0.100000,-0.100000)"
fill="#000000" stroke="none">
<path d="M230 1060 c0 -579 4 -1010 9 -1010 5 0 17 12 27 28 10 15 24 33 31
40 7 8 24 28 38 46 l24 31 0 874 c0 480 2 875 4 877 3 3 598 6 1176 4 170 0
183 -1 177 -17 -6 -19 18 6 62 61 12 16 25 26 29 23 3 -4 -14 -30 -38 -59 -24
-29 -51 -62 -59 -72 -13 -16 -15 -136 -15 -890 l0 -871 -688 0 -687 0 -45 -57
c-25 -32 -45 -60 -45 -63 0 -3 358 -5 795 -5 l795 0 0 1021 c0 562 2 1024 5
1027 3 3 5 9 5 14 0 4 -360 8 -800 8 l-800 0 0 -1010z"/>
<path d="M1307 1835 c-88 -23 -145 -103 -148 -206 -2 -87 34 -148 114 -198
l38 -23 40 43 c39 44 39 44 18 59 -12 8 -37 30 -56 47 -32 30 -35 37 -30 75 2
24 8 50 11 60 8 17 49 38 82 40 25 2 84 -21 84 -33 0 -5 6 -9 13 -9 12 0 67
71 67 87 0 10 -57 48 -87 57 -41 13 -99 14 -146 1z"/>
<path d="M589 1822 c-1 -9 0 -677 0 -714 l1 -26 133 3 c120 2 138 5 184 29
126 63 183 240 147 453 -20 122 -83 209 -174 243 -36 13 -289 23 -291 12z
m253 -123 c26 -14 42 -32 64 -72 21 -39 25 -59 29 -153 8 -176 -51 -274 -166
-278 l-54 -1 -1 250 c0 143 4 255 9 262 11 15 85 10 119 -8z"/>
<path d="M1333 1408 c-18 -22 -33 -43 -32 -47 0 -3 19 -20 42 -36 55 -40 68
-86 41 -141 -14 -28 -28 -41 -52 -48 -39 -11 -98 4 -129 34 -12 11 -24 20 -26
20 -2 0 -19 -21 -37 -46 l-33 -47 24 -19 c24 -19 81 -48 109 -55 8 -2 39 -4
68 -4 76 -1 139 33 177 95 26 44 30 59 30 125 0 77 -12 109 -56 153 -18 18
-80 58 -89 57 -3 0 -20 -18 -37 -41z"/>
<path d="M684 1046 c-158 -70 -231 -330 -158 -558 9 -27 19 -48 22 -47 4 0 26
25 50 55 32 40 41 60 37 75 -13 41 -7 189 10 244 20 64 71 121 112 127 40 6
86 -8 108 -32 25 -27 29 -26 65 19 27 35 29 42 18 61 -35 56 -190 89 -264 56z"/>
<path d="M1091 980 c-5 -11 -7 -652 -2 -717 1 -9 19 -13 56 -13 l56 0 -1 238
c0 130 0 248 0 262 1 14 48 -93 106 -238 l106 -262 69 0 69 0 0 373 0 372 -47
-2 c-27 -1 -51 -2 -55 -2 -4 -1 -6 -118 -5 -261 1 -142 -1 -256 -5 -252 -3 4
-31 70 -62 147 -30 77 -60 154 -67 170 -7 17 -13 32 -13 35 -7 27 -62 153 -70
157 -6 4 -37 7 -69 8 -43 0 -61 -4 -66 -15z"/>
<path d="M760 672 c-6 -2 -10 -28 -10 -58 0 -53 1 -54 28 -53 60 4 58 6 59
-95 1 -87 -1 -94 -21 -104 -12 -5 -41 -9 -64 -8 -52 3 -103 48 -121 107 l-12
40 -44 -53 c-25 -29 -45 -58 -45 -64 0 -27 104 -133 134 -135 6 0 22 -3 36 -6
72 -16 182 1 229 36 23 17 23 21 24 199 0 100 -3 185 -6 189 -7 6 -169 11
-187 5z"/>
</g>
</svg>
